<svg xmlns="http://www.w3.org/2000/svg" xmlns:xlink="http://www.w3.org/1999/xlink" width="126.106" height="38.417" viewBox="0 0 126.106 38.417">
  <defs>
    <clipPath id="clip-path">
      <rect id="Rechteck_1040" data-name="Rechteck 1040" width="126.106" height="24.298" fill="none"/>
    </clipPath>
  </defs>
  <g id="Gruppe_9633" data-name="Gruppe 9633" transform="translate(-128.945 -12.961)">
    <g id="delinat-farbig" transform="translate(128.945 12.961)">
      <g id="Gruppe_2972" data-name="Gruppe 2972" clip-path="url(#clip-path)">
        <path id="Pfad_900" data-name="Pfad 900" d="M98.192,14.486c10.866-1.719,13.606,4.04,13.605,8.057,0,3.9-2.809,9.589-13.606,8.149Zm3.157,13.419c3.2.3,7.1-1.091,7.1-5.386,0-3.6-2.716-5.874-7.1-5.387Z" transform="translate(-62.904 -9.08)"/>
        <path id="Pfad_901" data-name="Pfad 901" d="M151.681,28.436v2.646h-10.4v-16.3h10.169v2.647h-7.035v4.063h5.8V24.14h-5.8v4.3Z" transform="translate(-90.508 -9.471)"/>
        <path id="Pfad_902" data-name="Pfad 902" d="M188.594,31.082h-9.845v-16.3h3.134V28.436h6.711Z" transform="translate(-114.512 -9.47)"/>
        <rect id="Rechteck_1039" data-name="Rechteck 1039" width="3.134" height="16.299" transform="translate(76.844 5.313)"/>
        <path id="Pfad_903" data-name="Pfad 903" d="M247.157,14.373l0,16.322-.719.209-9.819-9.914v9.681h-3.088V14.35l.72-.209,9.8,9.914V14.373Z" transform="translate(-149.605 -9.059)"/>
        <path id="Pfad_904" data-name="Pfad 904" d="M275.967,30.791l7.546-16.461H284.6l7.5,16.461h-3.46l-1.23-2.647h-6.732l-1.23,2.647Zm5.828-5.247h4.481L284.047,20.3Z" transform="translate(-176.792 -9.18)"/>
        <path id="Pfad_905" data-name="Pfad 905" d="M329.055,17.432h-4.574V31.085h-3.135l0-13.653H316.8V14.786h12.259Z" transform="translate(-202.949 -9.472)"/>
        <path id="Pfad_906" data-name="Pfad 906" d="M30.144,22.23a.135.135,0,0,0-.062.017,1.932,1.932,0,0,1-.072-.185s0,0,0,.007a3.177,3.177,0,0,0,.014-.657c.048-.039.04-.074.045-.112.013-.137,0-.083-.056-.071-.01-.149-.023-.293-.036-.4-.018-.144.116-.492.09-.634s-.142-.3-.155-.4c.028-.111-.17-.3-.239-.454a.092.092,0,0,0-.023-.019c0-.049-.01-.1-.017-.161a2.407,2.407,0,0,1,.009-.479c0-.005,0-.012,0-.018.017-.171.054-.3.086-.483a.22.22,0,0,0,.047-.147c0-.035.064-.073.06-.1.014-.076-.005-.086.006-.161a.711.711,0,0,0,.008-.128c.034-.015.061-.017.063-.08s.02-.093-.009-.158c-.019-.107.036-.072.023-.18l-.081-.167c.019-.055.126-.16.113-.249h0c.057-.189.019-.188.063-.334,0-.014.2-.1.192-.189s-.111-.111-.135-.279c.073-.14,0-.252-.035-.387,0-.068.094-.131.092-.194.043-.194.2-.525.145-.578s-.133-.025-.208.005c-.022-.107-.054-.234-.088-.37a.2.2,0,0,0-.044-.158c-.091-.337-.188-.659-.207-.7-.1,0-.2-.009-.3-.01a1.634,1.634,0,0,1-.066-.206.5.5,0,0,0,.026-.17,6.863,6.863,0,0,0-.1-.932.121.121,0,0,0-.008-.027,2.964,2.964,0,0,0-.156-.7.165.165,0,0,0-.014-.161c-.006-.01-.022,0-.039.023-.089-.21-.2-.413-.321-.659.047-.157-.053-.216-.055-.376s.2-.362-.042-.457a.265.265,0,0,0-.147-.009c-.018-.035-.036-.07-.053-.106-.031-.059-.065-.124-.1-.19a.3.3,0,0,0,.044-.132c-.01-.049-.086-.107-.162-.163-.008-.037-.013-.073-.018-.106a.5.5,0,0,0-.051-.208.462.462,0,0,0-.127-.133l-.02-.021c.012-.1.034-.274-.019-.317s-.113.06-.174.069l-.15-.195a.555.555,0,0,1-.032-.1.966.966,0,0,0,.073-.221.886.886,0,0,0,.17-.428.336.336,0,0,0-.1-.142c0-.031-.005-.061-.011-.1a1.432,1.432,0,0,0-.065-.165.353.353,0,0,0,.056-.1c.082-.253-.172-.348-.339-.49-.057-.05-.11-.11-.164-.159-.083-.137-.165-.273-.238-.415a.6.6,0,0,1-.027-.073A.192.192,0,0,1,27.031,6,.5.5,0,0,0,27.1,5.75a.263.263,0,0,0-.077-.047.358.358,0,0,0-.065-.115c-.1-.137-.473-.235-.62-.336A.358.358,0,0,0,26.3,5.23a.811.811,0,0,0-.276-.352l-.189-.12a.881.881,0,0,0-.267-.1h0c-.015-.05.018-.11-.043-.144s-.065.04-.125.065l-.029-.015a.977.977,0,0,1-.077-.072c.009-.073.032-.161,0-.211,0-.009,0-.037-.084-.088l-.035-.1c.04-.139.128-.244.02-.337-.052-.045-.161.005-.282.015-.005-.008-.008-.019-.013-.026a1.448,1.448,0,0,0-.258-.247.14.14,0,0,0-.04-.088.355.355,0,0,0-.253-.089,2.558,2.558,0,0,0-.342-.143c-.047-.017-.272-.087-.328-.1-.042-.1-.088-.224-.141-.246a.871.871,0,0,0-.507.056c-.021-.007-.041-.012-.063-.018a.194.194,0,0,1,.008-.038,1.525,1.525,0,0,0-.347-.169L22.476,2.6c-.06-.132.045-.047-.089-.1a.707.707,0,0,0-.287.022h0c-.111-.031-.229-.063-.363-.1a.074.074,0,0,0-.02,0c-.106-.05-.207-.1-.308-.156a.224.224,0,0,0-.128-.17.293.293,0,0,0-.149-.006c-.035-.026-.073-.046-.11-.073,0,0,0-.006-.005-.008a.127.127,0,0,1,.009-.044.122.122,0,0,0,.019-.094c-.013-.009-.082-.034-.123-.049a.219.219,0,0,1-.032-.011.543.543,0,0,0-.156-.158.728.728,0,0,0-.208-.081.427.427,0,0,0-.078-.04.753.753,0,0,0-.054-.076c-.174-.19-.3-.124-.5-.071a.4.4,0,0,1-.078-.1.172.172,0,0,1,.006-.051.139.139,0,0,0-.028-.156.578.578,0,0,0-.1-.031A.537.537,0,0,0,19.347.8c-.016,0-.031,0-.047-.007-.047-.115-.116-.231-.18-.153-.027.03-.014.1-.009.15a2.793,2.793,0,0,1-.291.052.128.128,0,0,1-.02,0,.177.177,0,0,0,.013-.062.138.138,0,0,0-.277,0,.121.121,0,0,0,.047.1,1.894,1.894,0,0,1-.461.1.2.2,0,0,0-.188-.121c-.026,0-.075,0-.135.009C17.625.732,17.43.459,17.728.3c.041.055.057.359.253.339.067-.378-.3-.425-.672-.41-.015-.1-.081-.061-.174-.074s-.144.015-.157.1c-.152.016-.244-.055-.318.013.023-.023-.019.172.074.232.225.144-.015.133-.123.25-.189.208-.208.336-.524.279-.026-.025-.051-.056-.085-.089C15.887.836,15.832.792,15.767.8,15.7.735,15.639.675,15.614.642c-.04-.055-.163-.053-.325-.039a1.4,1.4,0,0,0-.2-.137l-.018-.01a.981.981,0,0,0-.434-.138.67.67,0,0,0-.1,0,.154.154,0,0,0-.058.043.108.108,0,0,0-.029.031c-.041.047.005.094-.026.17-.088.1-.162-.021-.216-.074a.111.111,0,0,0-.008-.054A.286.286,0,0,0,13.89.354c-.01.027-.023.051-.036.077A.523.523,0,0,1,13.8.411a.974.974,0,0,0-.213-.064c-.053,0-.113-.069-.178-.065a.2.2,0,0,0-.1.04.308.308,0,0,1-.125.056c-.012,0-.026.032-.047.019s-.043.141-.1.108c-.021-.012-.006-.094-.084-.118a.611.611,0,0,0-.278-.026c-.171.025-.321-.155-.413-.153-.117.005-.522-.174-.567-.093S11.534,0,11.44,0s-.154.142-.253.145c-.083,0-.161.006-.237.014-.051.008-.144-.1-.166-.055-.069.119-.165.125-.231.157-.273.128-.262.4-.457.539.031.025.065.047.1.07a.426.426,0,0,0-.2.089C9.725.877,9.751.711,9.626.81s.129.123-.055.261a1.711,1.711,0,0,0-.187.01c-.078-.02-.2-.068-.266,0a.034.034,0,0,0-.012.028.305.305,0,0,0-.2-.06.164.164,0,0,0-.036.013A.421.421,0,0,0,8.664.967c-.145-.017-.072.179.06.212a.575.575,0,0,1-.337.151c-.374.065-.487-.008-.759.065-.128.036-.17.209-.344.277-.063-.025-.237.006-.244.038a1.2,1.2,0,0,0-.3.025,2.9,2.9,0,0,0-.628.259c-.165-.018-.27.02-.231.1s.11.036.224-.023c.03.066.032.14-.084.218-.161.113-.124.06-.276.113a.3.3,0,0,0-.261.1H5.471a1.269,1.269,0,0,0-.5.216c-.062.045-.292.337-.312.353s-.277.17-.3.192l-.169.1c-.137-.129-.276-.174-.215.126-.037.023-.074.043-.108.062-.178-.037-.449-.017-.408.156.029.125.273.1.427.034l.063.035a.108.108,0,0,1,.01.023c0,.005,0,.011,0,.016a1.116,1.116,0,0,0-.621.381.534.534,0,0,0-.047.136.532.532,0,0,0-.031.185c0,.066.057.1.124.132.016.023-.242.436-.236.459-.141.045-.277.047-.314.137-.117.292-.026.218.025.349.022.055-.264.168-.366.316-.092.2-.078.517-.166.625-.189.237-.661.386-.661.512,0,.1.174.024.2.056.115.157-.265.268-.3.335-.03-.039-.045-.076-.1-.036-.093.076.056.194.155.131a.666.666,0,0,1,.158.382,1.168,1.168,0,0,1-.294.491c-.089.09-.068.234-.068.368-.1.142-.2.262-.287.393-.052.032-.116.069-.187.115-.2.128-.128.225-.04.307l-.015.031a2.5,2.5,0,0,0-.161.9c-.169.1-.074.131-.093.35-.019.236.179.2.1.374s-.006.462-.1.64c-.088.157.026.33.161.5a.831.831,0,0,1-.023.247c-.043.132-.03.146-.113.223-.238-.026-.155.24-.193.521,0,.011,0,.021,0,.031a1.563,1.563,0,0,0-.1.452.131.131,0,0,1-.015.01c-.141.08-.079.178-.277.337s.137.157.119.3.178.336-.055.479c-.2.128.01.228.255.4.021.149.046.308.083.463,0,.141,0,.295,0,.423,0,.245.211.429.482.668a2.362,2.362,0,0,0-.086.488c-.01-.093-.192-.2-.233-.354-.031,0-.049-.042-.091,0-.112.449.286.56.584.613a.74.74,0,0,0,.2.03l.027.006c.176.037.208.021.307.039.022.031.043.06.066.091.055.023.1.026.116.048a.088.088,0,0,1,.071.126v.02a.3.3,0,0,1-.047.108.2.2,0,0,0-.005.032c.025.146.127.157.208.277a7.444,7.444,0,0,1,.31.693.783.783,0,0,1,.154.363c.007.107-.076.247-.026.346.058.125.268.193.454.24.01.05.025.1.032.151.057.367-.1.27-.1.449,0,.04.126.1.287.171.021.1.061.207.147.23.064.017.135-.053.2-.1l.127.046c-.006.054-.02.113.031.138.024.013.04-.055.065-.1a.643.643,0,0,1,.143.066c.019.015.036.032.051.045.072.141.114.333.23.4a.142.142,0,0,0,.128.006c.034.042.076.1.123.153A2.434,2.434,0,0,1,4.46,22c.064.11.115.04.178.035a2.666,2.666,0,0,0,.3.357,3.83,3.83,0,0,1,.7.006.456.456,0,0,0,.113.049c.019,0,.04,0,.058.006.126.047.244.109.364.166-.187-.021-.575-.021-.254.171.1.047.461-.008.466-.082a1.709,1.709,0,0,0,.174.056.529.529,0,0,0,.092.015.418.418,0,0,0,.066.1c.167.182.133.034.27.009.245-.04.271-.039.31.145,0,.023.051.034.069.02a.349.349,0,0,0,.1-.091L7.529,23a.739.739,0,0,1,.176.342c.056-.027.074-.084.056-.169a.052.052,0,0,1,.013-.007c.091.025.7.582.71.551-.041.133-.475.16-.564.124-.065-.007-.179.027-.179.1,0,.179.4.27.515.313.242.01.411-.536.406-.532a.1.1,0,0,1,.056-.028.123.123,0,0,1,.044.019.278.278,0,0,1,.07.17c.06.365.318.264.611.1l.052.008c.132.006.161-.058.176-.141.015-.009.032-.016.047-.027a3.367,3.367,0,0,0,.362-.148.573.573,0,0,1,.065-.006.793.793,0,0,1,.157.019.211.211,0,0,0-.058.145.217.217,0,0,0,.435,0v-.008c.091.045.184.091.277.135.034.038.031.03.055.06.008-.015.05.01.056-.006l.042.018c.025.146.277.084.463.11s.378.216.551.142c.083-.037.1-.157.123-.242h0l.043-.014c.47-.181.152-.3.671-.166.1.025.163.3.286.345a.19.19,0,0,0,.05.013.048.048,0,0,0,.006.009h.045l0,0a1.442,1.442,0,0,0,.358-.032.154.154,0,0,0,.244-.031.376.376,0,0,0,.028-.027c.034-.009.066-.014.088-.019.1-.02.207-.045.31-.073l.056.012a.455.455,0,0,0,.192.025.685.685,0,0,0,.257-.12c.043-.026.1-.053.145-.078.082-.017.062-.047.082-.068a.228.228,0,0,0,.006-.134c.065.042.139.03.177.1.067.116.18-.1.085-.248-.045-.067-.155-.01-.245-.009a1.381,1.381,0,0,1,.11-.284c.016-.005.033-.009.045-.014.152-.066.216-.22.35-.3.1.032.2.118.275.093a6.936,6.936,0,0,0,1.161-.345.675.675,0,0,0,.084-.054l.015-.006c.023-.006.158-.231.182-.235l0-.014a.026.026,0,0,0,.01-.005c.01,0,.016-.022.024-.039.029-.023-.034-.108-.005-.131.071-.011.121-.086.184-.1.106-.032.039-.286.139-.339a.268.268,0,0,0,.061.048c.153.054.177-.036.2-.162a.728.728,0,0,1,.093-.034c.107-.028.376.1.469.066.125-.054.3-.011.42-.066.059-.008.3.1.353.1a2.2,2.2,0,0,0,.281.108c.192.024.2-.1.372-.142a.148.148,0,0,1,.052-.006.045.045,0,0,0,.014,0,1.762,1.762,0,0,0,.427,0c.139-.019.117-.225.293-.218a1.374,1.374,0,0,0,.216.029.244.244,0,0,0,.1-.047l.358-.011c.042.023.139.149.179.123a.2.2,0,0,0,.024-.019.636.636,0,0,1,.3.074c-.014.029-.026.058-.038.089.37-.035.08-.292.521-.414a.35.35,0,0,1,.073-.009c.124.285.238.172.323.009l.2.015.084.043.134-.024h.041c.21,0,.278-.009.534-.022.332.039.428.2.63.2.107,0,.17-.034.295-.034a.138.138,0,0,0,.043.028.227.227,0,0,0,.19-.028h.123a1.655,1.655,0,0,1,.288.048.346.346,0,0,0,.4.085,4.28,4.28,0,0,0,.428.06.7.7,0,0,0,.168.22.508.508,0,0,0,.056.049c.052.052.069.131.126.1a.675.675,0,0,0,.073-.034.272.272,0,0,1,.118.086,1.378,1.378,0,0,1,.106.121.18.18,0,0,0,.013.066.146.146,0,0,0,.052.059c-.015.009-.026.021-.041.03s-.006,0-.014,0c-.084.04-.153-.049-.161.043-.006.063.045.076.1.069h.01a.229.229,0,0,0,.068-.023c.037-.014.024-.038.058-.111l.029.013c.074.106.139.218.206.331,0,.017-.01.032-.015.052a.22.22,0,0,0-.005.155c.07.126.121.2.245.143a1.557,1.557,0,0,0,.281.306c.093.076.419-.022.547.032.161.068.082.149.2.244s.06-.089.291.036c.558.3.721.026.643-.031-.06-.018-.073-.079-.06-.158a.176.176,0,0,1,.035,0c0-.031-.006-.066-.01-.109a2.774,2.774,0,0,1,.286-.543c.017-.021.117-.211.219-.391l.066-.045a.152.152,0,0,1,.087-.026l.054,0a.141.141,0,0,0-.008.042.136.136,0,0,0,.138.139.138.138,0,1,0,0-.276m-3.819-5.254a1.263,1.263,0,0,1-.132.294.044.044,0,0,0-.042.005c-.113.089-.05-.056-.123.083-.014.021.005.082.031.148a1.076,1.076,0,0,0-.094.2c-.11.391.058.816-.182,1.191-.288.077-.16-.41-.339-.466a3.06,3.06,0,0,0-.431-.087.9.9,0,0,0-.525-.123c-.182-.068-.3-.137-.465-.21v-.005c.087,0,.1.049.1-.049s-.021-.276-.127-.25c-.074.015-.044.181-.273.077-.045-.02.021.1.054.132a1.351,1.351,0,0,0-.144-.042,4.41,4.41,0,0,0-.935-.118c-.038-.045-.117-.194-.161-.208-.155-.048-.166.032-.3.095-.115,0-.1,0-.219.011-.217-.1-.359.056-.624.072a.433.433,0,0,0-.258.1c-.213.017-.426.023-.638.028a.774.774,0,0,0-.18-.032.453.453,0,0,0-.141.032.372.372,0,0,0-.059.006.4.4,0,0,0-.427.144.469.469,0,0,1-.2.307c0-.006-.006-.008-.008-.011a.364.364,0,0,0-.6-.062.725.725,0,0,1-.08-.529c.039-.052.074-.1.116-.153.142-.168.146-.187.01-.378l-.015-.017.032-.078A.635.635,0,0,1,18.958,17c.015-.055.031-.106.045-.158a.277.277,0,0,1,.055-.087.13.13,0,0,1,.065-.036.7.7,0,0,0,.107-.179c0-.017,0-.069,0-.253v-.2c.008-.032.014-.063.021-.089.044-.211.049-.325.082-.539.079-.124.237-.127.27-.242a.467.467,0,0,0-.1-.358.529.529,0,0,1,.113-.019c.11.051.239.134.276-.055s-.157-.135-.244-.064c-.052-.023-.1-.047-.134-.067a.158.158,0,0,1-.073-.168.267.267,0,0,0-.008-.039c.025-.245.086-.585.072-.616-.044-.083-.244.04-.311-.176-.04-.137-.087-.276-.131-.413a.455.455,0,0,0,0-.1.2.2,0,0,1-.053-.058c-.015-.046-.03-.092-.044-.139-.074-.257.275-.5-.235-1.009a2.163,2.163,0,0,0-.38-.325c-.012-.008-.027-.1-.039-.108-.023-.056-.04-.019-.069-.071-.014-.069.049-.073.045-.1-.034-.174-.262-.233-.311-.164-.017-.022-.033-.057-.06-.057-.059,0-.107.044-.19-.026a2.576,2.576,0,0,1-.512-.65.332.332,0,0,1-.047-.184,1.084,1.084,0,0,0-.264-.221,1.6,1.6,0,0,0-.178-.174c-.04-.131-.1-.3-.336-.229-.1,0-.21-.1-.392-.161A.137.137,0,0,1,16,9.395c-.387.054-.385-.24-.529-.325l-.1-.027a.184.184,0,0,0-.051.023v0c-.081.019-.042.094-.1.082s-.065-.039-.088-.148c0-.027-.006-.046-.018-.051a.9.9,0,0,0-.378-.225c-.048,0-.09.1-.333-.032-.093-.051-.286.139-.388.111a1.094,1.094,0,0,1-.373-.322c0-.018-.116.007-.237.038-.149,0-.267-.07-.376-.048h-.011a.174.174,0,0,0-.083.013l-.056.024-.013.006a2.387,2.387,0,0,0-.464,0,4.229,4.229,0,0,0-.72.2c-.147.049-.228.161-.386.187-.182.031-.279-.043-.445.056-.242.144-.352.307-.657.341-.282.032-.256.176-.52.305-.124.057-.276-.023-.322.085a.88.88,0,0,0-.056.159l-.005.005c-.077.148-.129.184-.216.177-.092-.068-.185-.1-.282-.015-.013.047.141.079-.027.1,0,0,0,0,0,.006a.166.166,0,0,0-.062.077,1.379,1.379,0,0,1,.033.186c.043.007.077.01.068.076a.277.277,0,0,1-.056.118c0,.023,0,.049,0,.074a1.455,1.455,0,0,0-.113.227c-.034.111-.023.2-.115.295-.078.076-.2.079-.279.156-.056.057-.072.092-.072.122-.186.114-.355.2-.344.162-.045.155.2.288.2.454-.008.042-.023.08-.034.124-.055.085-.147.139-.168.286-.016.118-.034.253-.05.391-.087.1-.2.178-.2.309,0,.005.1.053.1.086a1.668,1.668,0,0,1,.023.313c-.042.229-.364.253-.222.493a.537.537,0,0,0,.221.195,3.534,3.534,0,0,0,.031.431c.242.06.363.333.42.662a.343.343,0,0,0,.032.321,3.765,3.765,0,0,1,0,.393.229.229,0,0,0-.019.039.446.446,0,0,0-.02.327.083.083,0,0,1,0,.014s0,0,0,0a1.637,1.637,0,0,0,.08.165c.054-.149.315-.027.406,0l.024.01c.167.226.275.531.2.651a1.515,1.515,0,0,1-.337.019c.162.221.167.366.231.3.181.177.628.16.961.253A.3.3,0,0,0,9.9,17.9c.019.006.035.014.055.02a.865.865,0,0,1,.216.114c.3.235-.08.215.421.435a.828.828,0,0,0,.1.033.208.208,0,0,0,.058.053.274.274,0,0,0,.207.013,4.844,4.844,0,0,0,.523.068c.063.061.126.116.194.1.023-.006.042-.039.061-.083q.126,0,.239,0c.148.214.764-.369.83-.249a.025.025,0,0,1,0,.011.015.015,0,0,0,.006,0c.014-.017.026-.036.038-.051s.005,0,.008-.011c.021-.057.045-.11.091-.111.026-.033.054-.065.076-.1.068-.054.135-.111.2-.17l.036,0c.047-.007.134.036.179.019.106-.045.16-.225.192-.4.019-.02.039-.042.058-.06a.622.622,0,0,1,.156-.01.867.867,0,0,0,.014-.192.717.717,0,0,0,.074-.121,2.719,2.719,0,0,0,.01-.983c.006-.019.009-.034.012-.042.043-.124.115-.014.157-.31,0,.017-.06-.126-.128-.166a1.888,1.888,0,0,1,.036-.224c.032-.037-.005-.019.029-.057a.537.537,0,0,0,.054-.063.408.408,0,0,1,.036-.042c.023,0,.049,0,.075-.01.068-.017.065-.074.06-.154l.035-.042.138-.163a.159.159,0,0,1,.081-.049c.1.078.247.094.184-.077a.722.722,0,0,0-.161-.1c-.013-.022-.092-.012-.107-.034-.087-.169-.347-.541-.417-.405a.273.273,0,0,1-.025.051.218.218,0,0,0,0,.058c0,.029-.041.068-.075.1s-.03.074-.035.119c0,.025.038-.015.02.006,0,.036.016.064.019.1s.095.124.125.209c-.029,0-.057-.027-.086-.017-.215.071.478.449-.557.271a.324.324,0,0,0-.082-.1h0a.115.115,0,0,0-.07-.023c-.08-.01-.2,0-.219-.011-.036-.023-.151-.18-.111-.156-.039-.024-.126-.059-.187-.089-.014,0-.029,0-.019,0a.507.507,0,0,0-.111,0l-.093-.055c-.012-.005-.032-.011-.045-.018s-.01-.016-.018-.027c.017.027,0-.043-.023-.106a.117.117,0,0,0-.134-.029,1.616,1.616,0,0,0-.181.064c-.287-.05-.622-.061-.723.037-.137.137.165.233-.134.423-.111.068-.2.123-.273.166-.126-.081-.171.006-.234.087a.989.989,0,0,1-.284,0,.038.038,0,0,1-.01-.017c.049-.181.1-.383.162-.589a.539.539,0,0,0,.069-.111.654.654,0,0,0,.024-.2c.008-.027.015-.055.026-.083a1.367,1.367,0,0,0,.133-.372c.031-.08.064-.158.1-.234.174-.074.354-.212.281-.376a.154.154,0,0,0-.051-.066,2.759,2.759,0,0,1,.231-.337l.014-.014c.009-.01.017-.025.027-.039a1.628,1.628,0,0,1,.121-.124.887.887,0,0,0,.252-.168.82.82,0,0,1,.454-.208.68.68,0,0,1,.291-.025c.032.011.053.088.071.09s.058.056.1.051.12-.149.207-.2a1.888,1.888,0,0,1,.352.089c.055.091.093.213.237.276a.663.663,0,0,0,.341.037,1.447,1.447,0,0,0,.24.083,1.136,1.136,0,0,0,.132.022,2.131,2.131,0,0,0,.553.156c.163.023.349.024.531.032l.079.04c-.019,0,.105.1.121.107.124.054.3.029.425.108a.015.015,0,0,1-.01-.009c.171-.024.167.135.2.24.018.06.07.2.088.281a4.62,4.62,0,0,1-.119.549.1.1,0,0,1-.014.01l.009,0a1.125,1.125,0,0,0-.026.138c-.006.082-.006.16-.006.236-.057.038-.092.1-.049.248a.8.8,0,0,0,.066.153,2.444,2.444,0,0,1-.089,1.151.808.808,0,0,0-.139.233c-.006.023-.011.044-.017.065a7.346,7.346,0,0,1-.584.774c-.1.014-.1-.023-.182.092a.357.357,0,0,0-.042.183l-.081.1a.69.69,0,0,0-.123.071l-.04.107a.1.1,0,0,0-.008.065,1.193,1.193,0,0,0-.111.252,2.656,2.656,0,0,0,0,.422.356.356,0,0,0-.1.166.5.5,0,0,0-.011.182.356.356,0,0,1-.165-.231c-.078-.224-.137-.1-.137-.1a.1.1,0,0,1-.026.029c-.233-.31-.379.012-.312.174s.157.286.06.385a.675.675,0,0,0-.045.054.149.149,0,0,0-.173-.061c-.146.042-.132.21-.1.329a.709.709,0,0,1-.179.091c-.177.065-.343-.027-.433.128a.13.13,0,0,0-.029.019.035.035,0,0,0-.01-.011c-.01.012-.014.022-.023.034a.74.74,0,0,0-.22.2,2.439,2.439,0,0,1-.176.253c-.308,0-.554.44-.83.45-.1,0-.21-.1-.307-.115a.113.113,0,0,1-.022-.01c-.032-.011-.065.005-.094.05-.113-.011-.116-.061-.216-.05s-.173.115-.273.136c-.147.029-.291-.124-.433-.048a.126.126,0,0,0-.056.077c-.088.006-.257.074-.352.078a.234.234,0,0,0-.054-.082c-.129-.094-.074-.007-.181-.049a.59.59,0,0,0-.178-.053c-.115,0-.236.1-.362.079a.157.157,0,0,1-.027-.023c.057-.207-.064-.245-.222-.268-.036-.073-.2-.057-.294-.122a4.087,4.087,0,0,1-.36-.455.043.043,0,0,1,.01-.014c.052-.007.22-.041.132-.121a.845.845,0,0,0-.454-.161.869.869,0,0,0-.089-.353l-.008.007a.1.1,0,0,1-.014-.015c-.049-.049-.078-.006-.113.02a.207.207,0,0,0-.055.159h0c-.049.041-.1.076-.151.11-.015,0-.033.007-.048.01a.866.866,0,0,1-.089-.017c-.03-.165-.277-.2-.411-.185A.639.639,0,0,0,7,19.146c-.053-.088.284-.2.258-.291a.1.1,0,0,0-.04-.051c-.114-.137-.187-.106-.339-.163a.844.844,0,0,1-.113-.064,1.046,1.046,0,0,1-.216-.056l-.081-.046a.862.862,0,0,0-.189.006c-.132-.03-.246-.051-.33-.064-.071-.072-.146.153-.207.087-.053-.031-.1-.035-.121.039.023.144-.064-.074-.218-.036a.338.338,0,0,1-.118-.013c-.179-.057-.089-.308-.282-.367a2.81,2.81,0,0,0-.429-.086.162.162,0,0,0-.114-.187c-.094-.022-.2.069-.294.132-.024,0-.05-.006-.073-.011-.134-.031-.156-.119-.229-.144l.01-.2a1.939,1.939,0,0,1-.26-.261.838.838,0,0,0-.066-.151.116.116,0,0,0-.014-.023.213.213,0,0,1,0-.036,1.9,1.9,0,0,0-.242-.345L3.283,16.8a3.784,3.784,0,0,0-.266-.29l-.045-.069a.378.378,0,0,0,0-.128.9.9,0,0,0-.149-.292,1.9,1.9,0,0,1,.011-.4c.077-.161.1-.185.056-.339a3.669,3.669,0,0,0,.056-.42,1.331,1.331,0,0,0-.008-.189v0a.443.443,0,0,0,0-.265c0-.092-.018-.16-.049-.179-.01-.008-.019-.022-.031-.031-.006-.054-.014-.107-.015-.158,0-.087,0-.158,0-.221.085-.137.261-.235.295-.4.013-.063-.032-.142-.021-.211,0-.011.008-.015.008-.024a.749.749,0,0,0,.056-.1.11.11,0,0,0,.01-.018.612.612,0,0,0,.073-.049c.143-.152.282-.231.279-.5a.3.3,0,0,0-.054-.116,2.582,2.582,0,0,0,.084-.28.425.425,0,0,0,.02-.052,2.248,2.248,0,0,0,.085-.47.347.347,0,0,0-.083-.216.715.715,0,0,1,.046-.221c.068.009.155.045.215-.019A.261.261,0,0,0,3.884,11c.128.006.263.032.284-.167,0-.023-.111-.2-.129-.139a.947.947,0,0,1-.381-.238.258.258,0,0,1,0-.05.327.327,0,0,0,.052-.127c.024-.039.049-.077.079-.117.093-.116.219-.229.3-.313.113-.01.3,0,.315-.034a1.52,1.52,0,0,1-.032-.233c0-.035-.006-.078-.011-.124.027-.043.059-.095.09-.143l.05-.031a1.14,1.14,0,0,0,.325-.266.381.381,0,0,0,.029-.158A2.039,2.039,0,0,0,5.014,8.7c.1.006.183.128.173-.12a.405.405,0,0,0-.036-.134.164.164,0,0,0,.023-.018c.1-.109.1-.174.063-.216a.172.172,0,0,0,.213-.164.9.9,0,0,0,.294.106c.029.027.055.054.087.085.132.132.138.115.243.132l.021-.011a.2.2,0,0,0,.054.022,1.982,1.982,0,0,0,.439,0,.169.169,0,0,1,.034.06c.064-.015.086-.04.122.011-.012.118,0,.358.2.241.1-.062.257-.343.2-.469-.03-.068-.335.068-.457-.215-.06-.132.112.006.141-.17l-.005,0c.054-.016.018-.063-.063-.067-.06-.043-.124-.014-.253-.033a.157.157,0,0,1-.1-.1l-.04-.162a.38.38,0,0,0-.186-.071c-.061,0-.087-.005-.073-.037-.006-.054-.075-.071-.065-.078.021-.086-.005-.187.123-.271.091-.084.147-.043.229-.137a.048.048,0,0,1,.014-.005s.023-.008.131-.054c.086-.036.134-.031.151-.111.037-.043.143.037.185-.005a.408.408,0,0,1,.3-.092c.129,0,.058-.247.115-.277A6.486,6.486,0,0,0,8,5.794c.012-.012.019-.017.031-.028.1-.027.381-.137.357.1.008.078.088.074.114.1s.144.014.122.063-.167-.01-.174.121.175.141.335.021c.131-.1.029-.076.036-.227-.016-.135-.087-.072-.089-.1-.011-.077.016-.054-.034-.133-.044-.1-.082-.036-.046-.141.02-.056-.1-.2.042-.188.028.038.089.031.117.031.069,0,.12-.08.168-.155.139-.031.433-.008.593-.021.131.078.258.166.43.046a.287.287,0,0,0,.069-.067c.1,0,.2,0,.275-.005s.4.051.468-.071h.018c.031,0,.223.02.463.025.06.1.116.182.205.143a.367.367,0,0,0,.163-.15c.042,0,.083-.008.118-.01a.489.489,0,0,0,.331-.032.164.164,0,0,0,.046-.077.111.111,0,0,0,.069-.109c0-.022.006-.037.006-.037a.143.143,0,0,1,.114-.118c.061-.012.055.02.132.055.014.029.052.046.054.06V4.9c.052.041.229,0,.515.041.066.012.139.025.22.046L13.381,5H13.4c.078.086.136.077.218.007.081,0,.161-.011.242-.019a2.184,2.184,0,0,1,.52-.008.163.163,0,0,1,.119.1c.089.012.278.027.507.038a.235.235,0,0,0,.253.01h0l.358.037a.171.171,0,0,1,.13-.008.3.3,0,0,0,.088.014.274.274,0,0,0,.031-.028.2.2,0,0,0,.056-.121.16.16,0,0,1,.112-.146,1.011,1.011,0,0,1,.615.114l.086-.087a.872.872,0,0,1,.219-.046.84.84,0,0,0,.212-.021c.095.133.181.258.334.089a.062.062,0,0,0,.01-.018.092.092,0,0,0,.023.006,2.693,2.693,0,0,0,.62-.02c.065-.007.133-.015.2-.019.106-.009.2-.014.293-.02a2.078,2.078,0,0,0,.364.1c.148.008.31,0,.463.015l.029.015a.232.232,0,0,0,.115.019.4.4,0,0,1,.1.034c.755.426.153,0,.556.475a.4.4,0,0,0-.041.143.136.136,0,0,0,.124.134c.284.017.447-.148.531-.133a1.149,1.149,0,0,1,.153.033.108.108,0,0,0,.02.023.227.227,0,0,0,.229.076,5,5,0,0,1,.463.292.292.292,0,0,0,.226.131c.08.027.466.119.584.176l.032.018a.308.308,0,0,0,.05.1.729.729,0,0,0,.47.229,1.014,1.014,0,0,1,.144.148c.132.165-.064.27-.023.447.039.15.227.457.433.381.049-.018.067-.084.084-.165a.615.615,0,0,1,.157.248.167.167,0,0,1,.05.065.194.194,0,0,1,.008.034.155.155,0,0,1,.06.04.285.285,0,0,1,.076.233.7.7,0,0,0,.113.295s0,.014.006.019c-.011.031-.018.057-.031.091-.054.216.11.06.013.262-.087.175.239.31.455.489a2.452,2.452,0,0,0,.257.667c.049.092.092.171.129.237.115.364.194.717.123.793-.034.036-.038.111.021.12.056-.031.107-.012.112.066a1.455,1.455,0,0,0,.133.411c-.051.032-.174.052-.158.112s.417.372.42.807c0,.189.109.254.165.383.006.088.013.176.013.262-.03.034-.086.032-.128.167a.729.729,0,0,0,.041.285c-.066.147-.153.312-.153.312a4.732,4.732,0,0,0,.156.57c0,.034,0,.067,0,.1.028.262.187.48.179.72-.005.128-.117.321-.079.446s.231.207.286.352c.027.077.006.207.037.3a.116.116,0,0,0,.049.052c.019.085.037.169.056.252a.67.67,0,0,1,.018.066c-.006-.022-.011-.04-.014-.052a.027.027,0,0,0,0-.014v0c0,.013.01.045.018.072,0,.06,0,.115-.008.164" transform="translate(0 0)" fill="#b23259"/>
      </g>
    </g>
    <g id="Gruppe_9609" data-name="Gruppe 9609" transform="translate(-35 -0.449)">
      <path id="Pfad_3150" data-name="Pfad 3150" d="M142.981,41.326a1.059,1.059,0,0,0,1.082-1.07,1.043,1.043,0,0,0-1.082-1.07,1.062,1.062,0,0,0-1.07,1.07,1.048,1.048,0,0,0,1.07,1.07m-6.35-.921v.749h3.851V40.4c-.739-.111-.96-.283-.96-.763V37.229a1.293,1.293,0,0,1,1.12-.763,1.548,1.548,0,0,1,1.243.492l.283-2.277a1.83,1.83,0,0,0-.652-.049,2.3,2.3,0,0,0-1.994,1.9V34.693h-.467l-2.424.517v.6l.2.074c.418.16.529.357.529.7v3.053c0,.48-.135.628-.726.763M132,37.118c.087-1.109.481-1.676.986-1.676.555,0,.875.592.912,1.676Zm1.208-2.425a3.17,3.17,0,0,0-3.3,3.457,2.96,2.96,0,0,0,3.1,3.176A3.012,3.012,0,0,0,136,39.111l-.578-.258a1.891,1.891,0,0,1-1.71,1.01c-.949,0-1.6-.69-1.725-1.934H136c-.012-1.944-.836-3.235-2.792-3.235m-6.672,6.632c1.7,0,2.7-.958,2.72-2.141a2.129,2.129,0,0,0-1.735-2.129l-1.244-.346c-.394-.111-.788-.271-.788-.7,0-.382.32-.615.825-.615a1.811,1.811,0,0,1,1.564,1.268l1.23-1.108a3.405,3.405,0,0,0-2.585-.86c-1.6,0-2.658.761-2.67,2.041,0,1.232.775,1.761,1.808,2.032l1.293.345a.776.776,0,0,1,.677.739.808.808,0,0,1-.912.764,2.458,2.458,0,0,1-1.92-1.626l-1.267,1.318a4.338,4.338,0,0,0,3,1.02m-6.216,0c1.7,0,2.7-.958,2.72-2.141a2.129,2.129,0,0,0-1.735-2.129l-1.244-.346c-.394-.111-.788-.271-.788-.7,0-.382.32-.615.825-.615a1.811,1.811,0,0,1,1.564,1.268l1.23-1.108a3.405,3.405,0,0,0-2.585-.86c-1.6,0-2.658.761-2.67,2.041,0,1.232.775,1.761,1.808,2.032l1.293.345a.776.776,0,0,1,.677.739.808.808,0,0,1-.911.764,2.458,2.458,0,0,1-1.921-1.626l-1.267,1.318a4.338,4.338,0,0,0,3,1.02m-7.5-4.208c.086-1.109.48-1.676.986-1.676.554,0,.874.592.911,1.676Zm1.207-2.425a3.17,3.17,0,0,0-3.3,3.457,2.961,2.961,0,0,0,3.1,3.176,3.013,3.013,0,0,0,2.99-2.215l-.579-.258a1.891,1.891,0,0,1-1.71,1.01c-.949,0-1.6-.69-1.724-1.934h4.013c-.012-1.944-.837-3.235-2.793-3.235m-8.371,3.876v-2.5a1.026,1.026,0,0,1,.677-.234c1.023,0,1.392,1.132,1.392,2.426,0,1.452-.5,2.2-1.121,2.2-.689,0-.948-.481-.948-1.9m1.133,2.756c1.859,0,3.175-1.365,3.175-3.519,0-1.638-.886-3.113-2.805-3.113a1.827,1.827,0,0,0-1.5.81V32.416h-.468l-2.424.517v.615l.185.062a.647.647,0,0,1,.542.7v6.842h.948l.627-.541a2,2,0,0,0,1.724.713M94.535,40.4v.749h3.851V40.4c-.739-.111-.96-.283-.96-.763V37.229a1.293,1.293,0,0,1,1.12-.763,1.548,1.548,0,0,1,1.243.492l.283-2.277a1.83,1.83,0,0,0-.652-.049,2.3,2.3,0,0,0-1.994,1.9V34.693h-.468l-2.423.517v.6l.2.074c.419.16.529.357.529.7v3.053c0,.48-.135.628-.726.763M89.179,39V34.693h-.468l-2.423.517v.6l.2.074c.419.172.529.357.529.7V39.2c0,1.291.59,2.14,1.992,2.14a2.205,2.205,0,0,0,1.934-1.205v1.193h.467l2.547-.628v-.749h-.431c-.3,0-.419-.185-.419-.726v-4.53h-.468l-2.424.517v.6l.2.074c.418.172.53.357.53.7V39.42a1.379,1.379,0,0,1-1,.591c-.579,0-.764-.431-.764-1.009m-2.9-5.319v-.749H83.235v.749c.875.062,1.035.3,1.035.874v2.992L80.8,32.933h-2.9v.749c.862.062,1.046.3,1.046.874V39.64c0,.333-.185.629-1.071.764v.749h3.038V40.4c-.862-.135-1.046-.431-1.046-.764V35.664l4.359,5.49H85.2v-6.6c0-.578.209-.812,1.071-.874" transform="translate(144.428 10.479)"/>
      <path id="Pfad_3151" data-name="Pfad 3151" d="M67.731,41.307a1.058,1.058,0,0,0,1.082-1.07,1.044,1.044,0,0,0-1.082-1.07,1.063,1.063,0,0,0-1.07,1.07,1.047,1.047,0,0,0,1.07,1.07m-6.3-1.684V36.593a1.378,1.378,0,0,1,1-.592c.579,0,.764.432.764,1.01v2.61c0,.468-.074.628-.555.775v.737h3.458v-.749c-.628-.148-.739-.3-.739-.763V36.815c0-1.292-.59-2.141-1.992-2.141a2.2,2.2,0,0,0-1.934,1.205V34.674H60.96l-2.423.516v.6l.2.074c.419.171.529.356.529.7v3.053c0,.468-.111.615-.726.763v.749h3.618v-.749c-.616-.148-.727-.3-.727-.763m-6.669-6.758a1.319,1.319,0,1,0,1.316-1.23,1.244,1.244,0,0,0-1.316,1.23m2.386,6.758V34.674h-.467l-2.424.517v.6l.2.074c.418.172.529.357.529.7v3.053c0,.468-.111.615-.726.763v.749h3.617v-.749c-.615-.148-.726-.3-.726-.763M49.636,37.1c.086-1.109.481-1.676.986-1.676.555,0,.875.592.912,1.676Zm1.207-2.425a3.17,3.17,0,0,0-3.3,3.458,2.96,2.96,0,0,0,3.1,3.175,3.012,3.012,0,0,0,2.99-2.215l-.578-.258a1.889,1.889,0,0,1-1.71,1.01c-.949,0-1.6-.69-1.725-1.934h4.013c-.012-1.944-.836-3.235-2.793-3.235m-3.349.921v-.749H45.4V35.6c.579.049.739.258.566.665l-1.06,2.523L43.877,36.26c-.172-.418-.025-.591.442-.665v-.749H40.677v.724a1.066,1.066,0,0,1,.788.739l.135.283-.923,2.2-1.01-2.536c-.172-.418-.074-.628.43-.665v-.749H36.456v.724a1.116,1.116,0,0,1,.8.739l2.275,5h.764l1.7-3.828,1.736,3.828h.8l2.2-5c.209-.468.443-.652.762-.714m-15.657,1.81c0-1.169.3-1.97.961-1.97.739,0,1.392,1.232,1.392,3.127,0,1.17-.3,1.97-.961,1.97-.714,0-1.392-1.206-1.392-3.127m1.133,3.9a3.319,3.319,0,0,0,3.421-3.433,3.114,3.114,0,0,0-3.347-3.2,3.315,3.315,0,0,0-3.421,3.445,3.085,3.085,0,0,0,3.347,3.187m-6.978-8.443a1.319,1.319,0,1,0,1.316-1.23,1.245,1.245,0,0,0-1.316,1.23m2.386,6.758V34.674h-.467l-2.424.517v.6l.2.074c.418.172.529.357.529.7v3.053c0,.468-.111.615-.726.763v.749h3.617v-.749c-.615-.148-.726-.3-.726-.763m-8.111-3.114v-2.87h.358a1.193,1.193,0,0,1,1.269,1.306c0,.973-.469,1.564-1.133,1.564Zm0,3.36V37.233h.739a1.446,1.446,0,0,1,1.4,1.589c0,1.047-.566,1.6-1.232,1.6h-.3a.542.542,0,0,1-.616-.554m.69-6.954H17.02v.749c.862.062,1.034.3,1.034.875v5.084c0,.332-.172.628-1.034.763v.749h4.369c2.253,0,3.359-1.044,3.359-2.313,0-1.367-.971-1.993-2.4-2.079a1.973,1.973,0,0,0,1.869-1.8c0-1.33-1.181-2.03-3.261-2.03" transform="translate(150.525 10.521)"/>
    </g>
  </g>
</svg>
