<?xml version="1.0" encoding="utf-8"?>
<!-- Generator: Adobe Illustrator 24.1.2, SVG Export Plug-In . SVG Version: 6.00 Build 0)  -->
<svg version="1.1" id="Ebene_3" xmlns="http://www.w3.org/2000/svg" xmlns:xlink="http://www.w3.org/1999/xlink" x="0px" y="0px"
	 viewBox="0 0 110.6 109.5" style="enable-background:new 0 0 110.6 109.5;" xml:space="preserve">
<style type="text/css">
	.st0{fill:#00326E;}
	.st1{fill:#C8D21E;}
	.st2{fill:#FFFFFF;}
</style>
<rect x="-0.3" y="-0.1" class="st0" width="110.4" height="110.4"/>
<path class="st1" d="M48.6,30.3c2.7,0.3,8.3-1.2,8.6,3.3c-0.6,3.8-4,6.3-7.7,7.1c-2.7,0.5-3.6-0.9-5-2.4c-0.7-1.8-0.1-3.7,1-5.3
	C46.4,31.9,47.5,30.9,48.6,30.3z"/>
<path class="st2" d="M24.8,56.1c0,1.6-0.2,3.2-0.3,4.7c-0.2,1.8-0.3,1.9-0.3,3.7c0,2.1,0.2,4.2,1,6.3l0,0l0,0
	c0.1,0.5,0.2,0.9,0.2,1.3c0,2-1.3,3.4-2.3,4.5c-0.4,0.4-0.7,0.8-1,1.2l-0.2,0.3l-0.4,0.1c-0.5,0.1-1,0.4-1.4,0.7
	c-1,0.7-2.5,1.6-4.5,0.1L15.4,79l-0.1-0.2c-0.7-1.3-0.9-2.7-0.9-4.2c0-0.9,0.1-1.7,0.1-2.6c0.1-0.9,0.1-1.8,0.1-2.8
	c0-0.9-0.1-1.8-0.3-2.7l0-0.1c0,0,0.5-7.7,0.5-8.6c-1-0.8-1.2-2.7-1.2-4.1c0-1,0-1.4,0.4-2.2l0.2-0.3l0.4-0.1
	c0.3-0.1,0.6-0.8,0.8-1.4c0.2-0.5,0.4-1,0.6-1.5L16,48.2c1.1-2.7,0.7-5.2,0.4-7.9c-0.5-3.4-0.9-6.8,1.9-10.4l0.1-0.1l0.1-0.1
	c1.5-1.3,3.3-1.6,5.1-1.8l1.6-0.2l0.1,0l0,0c1.3-0.1,2.8-0.6,4.4-1.1c4.3-1.4,9.7-3.1,12.8,2.4l0.3,0.6l-1.4,1.9
	c-1.2,1.8-2.8,3.9-5.3,4.2c-1.4,0.4-2.9,0.3-4.3,0.2c-2.6-0.1-4.4-0.3-5.7,2.4c-0.5,1.2-0.5,3.2-0.6,5.2c0,0.6,0,1.2-0.1,1.8
	c0.7,0,1.6,0.1,1.6,0.1c0.9,0.1,1.8,0.1,2.8,0.2c1.3,0,2.6,0,3.8-0.2c0,0,0-0.1,0.1-0.1c0.4-0.6,1.1-0.4,1.4-0.3
	c0,0,0.2,0.1,0.2,0.1c0.1,0,0.7,0,0.7,0l0.2,0.6c0.1,0.3,0.4,0.6,1,0.9c0.2,0.1,0.5,0.3,0.7,0.5c0.7,0.6,1.4,1.4,1.1,3l0,0.2
	l-0.1,0.2C35.5,54.8,29.6,56.3,24.8,56.1z"/>
<path class="st2" d="M48.1,72.9c-2.7,1.1-5.6,2.2-8.9,1.1c0.5-1-0.9-0.9-0.6-1.7c-0.7-7.9,1.5-15.2,2.5-23c1.2-0.7,1.6-3.3,3.8-2.7
	c0.2-1.8,1.9-0.5,3-0.5c0.4,0.5,1.1,1.4,2.2,1.3C50.8,55.4,47.2,65.3,48.1,72.9z"/>
<path class="st2" d="M97.9,47.6c-0.9,1.6-3.8,1.1-4.7,1.4c-0.6,0.2-1.2,0.5-1.3,0.9c-0.1,0.3,0.3,0.6-0.1,0.9c0.2,0.7,0.6,1.5,1,2.3
	c0.4,0.8,0.9,1.6,1.4,2.4c0.1,0.1-0.1,0.4,0,0.7c0.1,0.2,0.3,0.4,0.4,0.6c0.3,0.4,0.2,0.7,0.3,1.1c0.2,0.6,0.5,1.4,0.7,1.9
	c1.4,3.7-2.2,7-3.9,9.8c-3.2,2.4-7.7,4.4-11.6,2.9c-1.9,0.1-3-2-2.1-3.1c0.7-2,3.5-2.7,5.6-3.5c1.2-0.5,2.3-1,2.6-1.9
	c0.2-0.5,0.2-1.2-0.3-2c-0.2-0.4-0.5-0.8-0.9-1.3c-0.2-0.7-0.4-1.3-0.7-2c-0.2-0.5-0.9-1.6-1.1-2c-0.2-0.5,0.1-0.3-0.1-0.8
	c-0.1-0.2-0.2-0.5-0.3-0.7c-0.3-0.7-0.5-1.3-0.7-2c-0.9-2.7-1-5.5,1.3-8.7C87.4,40.6,98.9,40.2,97.9,47.6z"/>
<path class="st2" d="M70.1,72.7c-2.6-0.1-7,3.6-7.8-0.8c-3-6.7-4-13.1-5.1-21.2c-0.2-0.1,0-1-0.2-0.8c-0.8,0.7-3.3,0.7-3.2-1.1
	c0.9-3.6,1.8-7.8,5.7-9.9c3.3-2.2,9.5-2.6,13.5-1.5c5.9,1.7,5.4,5.5,5.9,10.9c0.1,0.5-0.3,1.4-0.9,2.5c-0.4,0.8-1,1.8-1.7,2.8
	c-0.4,0.5,0,0.7-0.4,1.3c-0.7,0.9-2.5,3-3.3,3.9c-1,1-1.8,1.2-2.7,2.1c-0.3,0.2-0.5,0.4-0.8,0.6c-0.4,0.3-0.8,0.6-1.2,0.8
	C68.2,65.8,71.8,69.5,70.1,72.7z M69.9,51.2c0-1,0-3.2-1-4c-0.4-0.5-0.8-0.8-1.3-0.8c-0.7-0.1-1.5,0-2.9,0.2c-0.1,1.5,0.4,5.7,1,7.6
	C67.8,54.2,69,52.3,69.9,51.2z"/>
</svg>
